<svg width="24" height="23" viewBox="0 0 24 23" fill="none" xmlns="http://www.w3.org/2000/svg">
<path d="M1.5 5.61035C1.5 4.50578 2.39543 3.61035 3.5 3.61035H9.04765C9.48701 3.61035 9.91414 3.46568 10.2631 3.19867L12 1.86954L13.7369 3.19868C14.0859 3.46568 14.513 3.61035 14.9523 3.61035H20.5C21.6046 3.61035 22.5 4.50578 22.5 5.61035V19.6104C22.5 20.7149 21.6046 21.6104 20.5 21.6104H3.5C2.39543 21.6104 1.5 20.7149 1.5 19.6104V5.61035ZM11.5746 1.54402L11.5752 1.54446C11.575 1.54432 11.5748 1.54417 11.5746 1.54402L12 0.988107L11.5746 1.54402Z" stroke="#737373" stroke-width="2"/>
<circle cx="12" cy="10.1104" r="3.65" stroke="#737373" stroke-width="1.7"/>
<path d="M5.5 21.4437C5.5 18.7743 7.66396 16.6104 10.3333 16.6104H14.6667C17.336 16.6104 19.5 18.7743 19.5 21.4437C19.5 21.5357 19.4254 21.6104 19.3333 21.6104H5.66667C5.57462 21.6104 5.5 21.5357 5.5 21.4437Z" stroke="#737373" stroke-width="2"/>
</svg>
